<?xml version="1.0" encoding="UTF-8"?>
<svg width="66px" height="66px" viewBox="0 0 66 66" version="1.1" xmlns="http://www.w3.org/2000/svg" xmlns:xlink="http://www.w3.org/1999/xlink">
    <!-- Generator: Sketch 53.2 (72643) - https://sketchapp.com -->
    <title>ant-design:notification-fill</title>
    <desc>Created with Sketch.</desc>
    <g id="Page-1" stroke="none" stroke-width="1" fill="none" fill-rule="evenodd">
        <g id="Mobile" transform="translate(-174.000000, -349.000000)" fill-rule="nonzero">
            <g id="ant-design:notification-fill" transform="translate(174.000000, 349.000000)">
                <g id="Icon" fill="#FFFFFF">
                    <path d="M62.5888029,-1.6956922e-16 C62.2791187,-1.6956922e-16 61.961285,0.057047086 61.6434512,0.187440425 L14.6692507,19.0618763 L1.30393339,19.0618763 C0.586770027,19.0618763 -1.6956922e-16,19.6649455 -1.6956922e-16,20.4147072 L-1.6956922e-16,44.7819625 C-1.6956922e-16,45.5317242 0.586770027,46.1347934 1.30393339,46.1347934 L9.58391044,46.1347934 C9.28237585,47.0801451 9.12753376,48.0825439 9.12753376,49.1012419 C9.12753376,54.4718175 13.5120098,58.8399944 18.9070342,58.8399944 C23.4219036,58.8399944 27.2277592,55.7757509 28.3524017,51.6357624 L61.6516008,65.0173789 C61.9694345,65.1396226 62.2872683,65.2048193 62.5969525,65.2048193 C63.9742321,65.2048193 65.2048193,64.0475784 65.2048193,62.4991575 L65.2048193,2.70566179 C65.1966697,1.15724089 63.9742321,-1.6956922e-16 62.5888029,-1.6956922e-16 Z M19.0884832,53.2771084 C16.8911642,53.2771084 15.1084337,51.5362524 15.1084337,49.3886544 C15.1084337,48.4775522 15.4318128,47.6071241 16.0205284,46.9156627 L23.060241,49.6896435 C22.8944056,51.6908144 21.1780092,53.2771084 19.0884832,53.2771084 L19.0884832,53.2771084 Z" id="Icon-Shape"></path>
                </g>
                <rect id="ViewBox" x="20" y="20" width="25" height="25"></rect>
            </g>
        </g>
    </g>
</svg>